<?xml version="1.0" encoding="UTF-8"?>
<svg version="1.1" xmlns="http://www.w3.org/2000/svg" width="555" height="555">
<path d="M0 0 C3.14586469 0.00314877 6.29077479 -0.02035666 9.43652344 -0.0456543 C27.99148035 -0.10436105 46.18878666 1.79963174 64.29589844 5.94067383 C65.40376709 6.19155762 66.51163574 6.44244141 67.65307617 6.70092773 C86.80529893 11.21891564 105.33321879 17.76397999 123.04589844 26.31567383 C124.02695557 26.77659424 124.02695557 26.77659424 125.02783203 27.24682617 C141.3226787 34.90285614 156.98465816 44.04537669 171.04589844 55.31567383 C171.85542969 55.94602539 172.66496094 56.57637695 173.49902344 57.22583008 C176.04260326 59.223771 178.54923362 61.25938284 181.04589844 63.31567383 C181.5637793 63.74187012 182.08166016 64.16806641 182.61523438 64.60717773 C195.6753718 75.41438427 207.54777885 86.97968826 218.04589844 100.31567383 C219.50384194 102.04516919 220.96218477 103.774328 222.42089844 105.50317383 C235.99406515 122.14505649 246.98392963 140.8840928 256.04589844 160.31567383 C256.40538574 161.08298828 256.76487305 161.85030273 257.13525391 162.64086914 C273.36841689 197.72703746 281.44190554 235.6979028 281.36157227 274.26977539 C281.35842349 277.41564008 281.38192893 280.56055018 281.40722656 283.70629883 C281.46593331 302.26125574 279.56194052 320.45856205 275.42089844 338.56567383 C275.04457275 340.22747681 275.04457275 340.22747681 274.66064453 341.92285156 C270.14265663 361.07507432 263.59759227 379.60299418 255.04589844 397.31567383 C254.58497803 398.29673096 254.58497803 398.29673096 254.11474609 399.29760742 C238.0380744 433.5146757 213.49875186 466.36823361 183.84667969 490.07348633 C182.03394915 491.52468204 180.23822544 492.99749158 178.46386719 494.49536133 C161.15861728 509.07639648 141.52056011 520.76726162 121.04589844 530.31567383 C119.89492676 530.85490479 119.89492676 530.85490479 118.72070312 531.4050293 C83.6345348 547.63819228 45.66366947 555.71168093 7.09179688 555.63134766 C3.94593219 555.62819889 0.80102209 555.65170432 -2.34472656 555.67700195 C-20.89968348 555.7357087 -39.09698978 553.83171591 -57.20410156 549.69067383 C-58.31197021 549.43979004 -59.41983887 549.18890625 -60.5612793 548.93041992 C-79.71350205 544.41243202 -98.24142191 537.86736766 -115.95410156 529.31567383 C-116.60813965 529.00839355 -117.26217773 528.70111328 -117.93603516 528.38452148 C-136.33692443 519.73898081 -153.12684269 509.04750171 -168.95410156 496.31567383 C-169.95828125 495.52418945 -170.96246094 494.73270508 -171.99707031 493.91723633 C-186.67442412 482.18382506 -200.31074256 469.06392857 -211.95410156 454.31567383 C-212.83867739 453.22124368 -213.72412697 452.1275193 -214.61035156 451.03442383 C-225.64423657 437.3366493 -234.70437621 422.83557819 -242.95410156 407.31567383 C-243.30714355 406.66018555 -243.66018555 406.00469727 -244.02392578 405.3293457 C-256.42274342 382.18172062 -264.53843829 357.05120714 -269.76660156 331.37817383 C-269.96157227 330.42120605 -270.15654297 329.46423828 -270.35742188 328.47827148 C-273.38502992 312.74485508 -274.3030944 297.35963254 -274.26977539 281.36157227 C-274.26662662 278.21570758 -274.29013205 275.07079748 -274.31542969 271.92504883 C-274.37413644 253.37009191 -272.47014365 235.17278561 -268.32910156 217.06567383 C-268.07821777 215.95780518 -267.82733398 214.84993652 -267.56884766 213.70849609 C-263.05085975 194.55627334 -256.5057954 176.02835348 -247.95410156 158.31567383 C-247.64682129 157.66163574 -247.33954102 157.00759766 -247.02294922 156.33374023 C-238.37740854 137.93285096 -227.68592945 121.1429327 -214.95410156 105.31567383 C-214.16261719 104.31149414 -213.37113281 103.30731445 -212.55566406 102.27270508 C-206.71011724 94.96049578 -200.39712663 88.09991829 -193.95410156 81.31567383 C-193.1690625 80.4880957 -192.38402344 79.66051758 -191.57519531 78.80786133 C-186.91213813 74.01967739 -181.97409669 69.7303449 -176.75488281 65.55786133 C-174.94215228 64.10666561 -173.14642856 62.63385608 -171.37207031 61.13598633 C-154.06682041 46.55495117 -134.42876324 34.86408604 -113.95410156 25.31567383 C-113.18678711 24.95618652 -112.41947266 24.59669922 -111.62890625 24.22631836 C-76.54273793 7.99315538 -38.57187259 -0.08033327 0 0 Z " fill="#000000" transform="translate(273.9541015625,-0.315673828125)"/>
<path d="M0 0 C7.92 0 15.84 0 24 0 C24 0.66 24 1.32 24 2 C23.01 2 22.02 2 21 2 C27.01871252 11.68692193 33.37645451 20.51936952 41 29 C49.95691892 22.09570833 55.87261432 12.98361154 61 3 C60.01 2.505 60.01 2.505 59 2 C59 1.34 59 0.68 59 0 C66.59 0 74.18 0 82 0 C80.8657309 3.40280731 80.43797445 3.55830186 77.5625 5.375 C72.08037732 9.35051095 68.43028737 14.6345047 64.47705078 20.03759766 C62.83564983 22.21835482 61.12634125 24.33321759 59.40234375 26.44921875 C58.79672607 27.20420654 58.1911084 27.95919434 57.56713867 28.73706055 C56.37073502 30.22697932 55.16149633 31.70669621 53.9387207 33.17504883 C52.43862818 35.07085349 51.10622204 36.8506924 50 39 C50.16447707 41.7019874 50.16447707 41.7019874 52 44 C52.71671875 45.07894531 53.4334375 46.15789062 54.171875 47.26953125 C55.0256033 48.45460921 55.88522941 49.63545556 56.75 50.8125 C57.42977905 51.74932617 57.42977905 51.74932617 58.12329102 52.70507812 C59.40990189 54.47425437 60.70368389 56.23792878 62 58 C62.52980469 58.72574219 63.05960937 59.45148438 63.60546875 60.19921875 C66.88449464 64.63215404 70.29336941 68.96748242 73.6875 73.3125 C74.16372803 73.92416016 74.63995605 74.53582031 75.13061523 75.16601562 C79.21993132 80.73149422 79.21993132 80.73149422 85 84 C85 84.66 85 85.32 85 86 C77.41 86 69.82 86 62 86 C62 84.02 62 82.04 62 80 C60.47170258 77.6380858 59.00633512 75.67234874 57.1875 73.5625 C56.17976072 72.34323328 55.17463867 71.12179959 54.171875 69.8984375 C53.65044922 69.26647461 53.12902344 68.63451172 52.59179688 67.98339844 C49.40755708 64.01579659 46.48041336 59.85400193 43.5300293 55.71118164 C41.23876695 52.33872382 41.23876695 52.33872382 38 50 C37.75378906 50.72058594 37.50757813 51.44117188 37.25390625 52.18359375 C35.85727052 55.32058553 34.16706944 57.45543733 31.9375 60.0625 C25.83327892 67.35009188 19.76867991 74.75228318 15 83 C15.66 83.33 16.32 83.66 17 84 C17 84.66 17 85.32 17 86 C9.74 86 2.48 86 -5 86 C-5 85.34 -5 84.68 -5 84 C-4.10410156 83.62230469 -3.20820313 83.24460937 -2.28515625 82.85546875 C1.44155755 80.75060661 3.06918793 78.76844734 5.5625 75.3125 C6.42211478 74.14539027 7.28421974 72.98011169 8.1484375 71.81640625 C8.60444336 71.19910645 9.06044922 70.58180664 9.53027344 69.94580078 C12.15487393 66.471039 14.92760901 63.11751887 17.6875 59.75 C18.78791453 58.39465637 19.8881795 57.03919128 20.98828125 55.68359375 C22.77570035 53.48691885 24.58165681 51.31685864 26.41796875 49.16015625 C27.06378906 48.38542969 27.70960938 47.61070312 28.375 46.8125 C28.91898438 46.17957031 29.46296875 45.54664063 30.0234375 44.89453125 C31.16628552 43.02300312 31.16628552 43.02300312 31.03125 40.7578125 C29.48218706 36.61524268 26.86397404 33.50125726 24.125 30.0625 C23.54290771 29.3190332 22.96081543 28.57556641 22.36108398 27.80957031 C21.16235156 26.27996751 19.96010218 24.75311454 18.75439453 23.22900391 C17.11780938 21.14967988 15.50553002 19.05434447 13.90234375 16.94921875 C12.95594528 15.71597995 12.0093419 14.48289837 11.0625 13.25 C10.6392041 12.69062744 10.2159082 12.13125488 9.77978516 11.55493164 C7.62191731 8.77780905 5.41541237 6.42622947 2.68359375 4.234375 C1.79800781 3.49703125 0.91242188 2.7596875 0 2 C0 1.34 0 0.68 0 0 Z " fill="#7B6921" transform="translate(208,353)"/>
<path d="M0 0 C6.27 0 12.54 0 19 0 C19 0.66 19 1.32 19 2 C18.01 2 17.02 2 16 2 C16.33 29.72 16.66 57.44 17 86 C11.39 86 5.78 86 0 86 C0 85.34 0 84.68 0 84 C0.99 84 1.98 84 3 84 C3 57.27 3 30.54 3 3 C2.01 2.67 1.02 2.34 0 2 C0 1.34 0 0.68 0 0 Z " fill="#7B6821" transform="translate(323,353)"/>
<path d="M0 0 C13.86 0 27.72 0 42 0 C42 1.98 42 3.96 42 6 C31.11 6 20.22 6 9 6 C9 7.65 9 9.3 9 11 C19.89 11 30.78 11 42 11 C42 12.98 42 14.96 42 17 C31.11 17 20.22 17 9 17 C9 18.65 9 20.3 9 22 C20.22 22 31.44 22 43 22 C43 23.98 43 25.96 43 28 C28.81 28 14.62 28 0 28 C0 18.76 0 9.52 0 0 Z " fill="#888888" transform="translate(393,172)"/>
<path d="M0 0 C3.445901 -0.48175703 6.56884821 -0.65556675 10 0 C12.53886681 2.20330586 13.63314828 4.97175612 15 8 C15.53753906 9.03382813 16.07507812 10.06765625 16.62890625 11.1328125 C21 19.55046404 21 19.55046404 21 22 C21.99 22 22.98 22 24 22 C24.11859375 21.27554688 24.2371875 20.55109375 24.359375 19.8046875 C25.42415163 15.14304348 27.70904331 11.16772913 30 7 C30.59167969 5.90945312 30.59167969 5.90945312 31.1953125 4.796875 C32.375 2.875 32.375 2.875 35 0 C38.8125 -0.4375 38.8125 -0.4375 42 0 C40.56797099 6.5747244 37.45526191 11.68898016 33.9375 17.375 C33.38255859 18.28894531 32.82761719 19.20289063 32.25585938 20.14453125 C28.19056548 26.80943452 28.19056548 26.80943452 27 28 C25.14712498 28.07226502 23.29166122 28.0838122 21.4375 28.0625 C20.42558594 28.05347656 19.41367187 28.04445312 18.37109375 28.03515625 C17.58863281 28.02355469 16.80617187 28.01195312 16 28 C14.4864028 25.25727599 12.99159291 22.50474367 11.5 19.75 C11.07074219 18.97269531 10.64148437 18.19539063 10.19921875 17.39453125 C9.79316406 16.64042969 9.38710938 15.88632813 8.96875 15.109375 C8.40317383 14.07248535 8.40317383 14.07248535 7.82617188 13.01464844 C7 11 7 11 7 7 C6.01 7 5.02 7 4 7 C3.85304688 7.59425781 3.70609375 8.18851563 3.5546875 8.80078125 C1.6788072 15.73291364 -1.07074898 21.96931111 -5 28 C-8.30574883 29.65287441 -11.46966243 29.89743161 -15 29 C-17.62093243 26.71352531 -19.24463881 23.97819708 -21 21 C-21.50015625 20.22140625 -22.0003125 19.4428125 -22.515625 18.640625 C-26.09123794 12.78604996 -26.09123794 12.78604996 -25.6953125 9.375 C-25.01984147 7.0677731 -24.16561151 5.09810072 -23 3 C-18.75547791 6.86204867 -16.41937336 11.33619732 -13.68359375 16.3203125 C-12.11917349 19.21625711 -12.11917349 19.21625711 -9 21 C-8.62875 19.7625 -8.2575 18.525 -7.875 17.25 C-5.87666889 11.19708401 -2.94698158 5.63645991 0 0 Z " fill="#8B8B8B" transform="translate(42,172)"/>
<path d="M0 0 C1.16724609 -0.01611328 2.33449219 -0.03222656 3.53710938 -0.04882812 C14.09588895 -0.05484452 14.09588895 -0.05484452 19.0625 3.3125 C19.0625 5.6225 19.0625 7.9325 19.0625 10.3125 C18.47549316 10.09811279 17.88848633 9.88372559 17.28369141 9.6628418 C10.52132842 7.38952834 4.53348761 6.940258 -2.5625 7.125 C-4.06876953 7.14530273 -4.06876953 7.14530273 -5.60546875 7.16601562 C-8.05006864 7.20093848 -10.49347734 7.24997252 -12.9375 7.3125 C-12.9375 8.6325 -12.9375 9.9525 -12.9375 11.3125 C-12.25236328 11.3218457 -11.56722656 11.33119141 -10.86132812 11.34082031 C-7.71935565 11.3949191 -4.57880933 11.47848824 -1.4375 11.5625 C-0.35984375 11.57667969 0.7178125 11.59085938 1.828125 11.60546875 C8.50328959 11.80897987 15.04084146 12.29084146 20.0625 17.3125 C20.6510444 24.49274172 20.6510444 24.49274172 18.3125 27.75 C12.62816432 31.69745534 5.25251891 30.49653191 -1.375 30.5 C-2.60283203 30.51224609 -3.83066406 30.52449219 -5.09570312 30.53710938 C-6.87170898 30.54000977 -6.87170898 30.54000977 -8.68359375 30.54296875 C-9.76310303 30.54707764 -10.8426123 30.55118652 -11.95483398 30.55541992 C-14.99660406 30.30768634 -17.18704044 29.59778825 -19.9375 28.3125 C-19.9375 26.3325 -19.9375 24.3525 -19.9375 22.3125 C-19.03902344 22.47621094 -18.14054687 22.63992187 -17.21484375 22.80859375 C-11.66808673 23.60098761 -6.09009079 23.4181283 -0.5 23.375 C0.61310547 23.37048828 1.72621094 23.36597656 2.87304688 23.36132812 C5.60292101 23.34961193 8.33268174 23.33320699 11.0625 23.3125 C10.5675 21.8275 10.5675 21.8275 10.0625 20.3125 C9.50377197 20.29791748 8.94504395 20.28333496 8.36938477 20.26831055 C5.78729948 20.19289202 3.20637816 20.09655119 0.625 20 C-0.25349609 19.97744141 -1.13199219 19.95488281 -2.03710938 19.93164062 C-8.47678602 19.67025154 -15.46169119 19.11017423 -20.66186523 14.92456055 C-21.9375 13.3125 -21.9375 13.3125 -22.375 9.875 C-21.9375 6.3125 -21.9375 6.3125 -20.25 4 C-13.94885937 -0.59812965 -7.49823903 -0.02063357 0 0 Z " fill="#868686" transform="translate(316.9375,170.6875)"/>
<path d="M0 0 C10.200609 0 12.85573162 0.18402689 20 6 C20.76747559 6.58998779 21.53495117 7.17997559 22.32568359 7.7878418 C23.85466169 8.96374391 25.37624748 10.14933135 26.88964844 11.34521484 C29.74524936 13.58437068 32.67605961 15.69794972 35.625 17.8125 C37.06875 18.864375 38.5125 19.91625 40 21 C40.33 14.07 40.66 7.14 41 0 C43.97 0 46.94 0 50 0 C50 9.24 50 18.48 50 28 C37.21880851 28 34.03341216 27.96197843 25 21 C23.12352469 19.64897847 21.23591449 18.31447067 19.34765625 16.97998047 C17.5129956 15.67855325 15.69140984 14.36044274 13.87109375 13.0390625 C11.22110805 11.04668435 11.22110805 11.04668435 9 10 C9 15.94 9 21.88 9 28 C6.03 28 3.06 28 0 28 C0 18.76 0 9.52 0 0 Z " fill="#858585" transform="translate(144,172)"/>
<path d="M0 0 C0 2.31 0 4.62 0 7 C-0.65484375 6.7834375 -1.3096875 6.566875 -1.984375 6.34375 C-12.04465664 3.27451153 -21.33881447 2.34831808 -31 7 C-31.66 7.66 -32.32 8.32 -33 9 C-33.02308597 11.22128555 -33.02308597 11.22128555 -32.625 13.625 C-32.51414063 14.44226563 -32.40328125 15.25953125 -32.2890625 16.1015625 C-32.19367188 16.72804687 -32.09828125 17.35453125 -32 18 C-26.75768127 19.73600345 -22.25352417 20.28504381 -16.75 20.1875 C-15.69039062 20.1865332 -15.69039062 20.1865332 -14.609375 20.18554688 C-11.48020291 20.15887779 -8.98814475 19.99604825 -6 19 C-8.64 18.34 -11.28 17.68 -14 17 C-14 15.35 -14 13.7 -14 12 C-7.4 12 -0.8 12 6 12 C6 16.62 6 21.24 6 26 C-25.8444501 30.85248763 -25.8444501 30.85248763 -36.3515625 23.3125 C-41.54658742 18.90682515 -41.54658742 18.90682515 -43 16 C-43.38502508 10.89841765 -42.98852816 8.14199517 -40 4 C-28.05857853 -5.24833865 -13.54825851 -6.77412925 0 0 Z " fill="#838383" transform="translate(243,174)"/>
<path d="M0 0 C5.44592377 3.30809921 8.35530825 8.68071279 11.6875 13.9375 C12.26822266 14.83146484 12.84894531 15.72542969 13.44726562 16.64648438 C16.04421543 20.69052066 18.31714262 24.48085488 20 29 C17.36 29 14.72 29 12 29 C11.505 28.01 11.505 28.01 11 27 C1.43 26.67 -8.14 26.34 -18 26 C-18.33 26.99 -18.66 27.98 -19 29 C-21.64 29 -24.28 29 -27 29 C-24.81165197 22.97510492 -21.16818712 18.06669506 -17.5625 12.8125 C-16.88123047 11.80251953 -16.19996094 10.79253906 -15.49804688 9.75195312 C-14.83998047 8.78837891 -14.18191406 7.82480469 -13.50390625 6.83203125 C-12.90392822 5.95264893 -12.3039502 5.0732666 -11.68579102 4.16723633 C-8.25604364 -0.24201312 -5.35297419 -0.55375595 0 0 Z " fill="#888888" transform="translate(118,171)"/>
<path d="M0 0 C11.49228808 0 15.83749008 3.4140683 24.5625 10 C26.2289219 11.25206142 27.89684624 12.50212616 29.56640625 13.75 C30.29802979 14.30171875 31.02965332 14.8534375 31.78344727 15.421875 C34.03939742 17.08471114 34.03939742 17.08471114 36.77709961 18.578125 C37.8774353 19.28195313 37.8774353 19.28195313 39 20 C39 20.66 39 21.32 39 22 C39.66 22 40.32 22 41 22 C41 14.74 41 7.48 41 0 C43.64 0 46.28 0 49 0 C49 9.24 49 18.48 49 28 C32.92432065 28 32.92432065 28 25.6875 21.875 C24.23433928 20.72496054 22.77991263 19.57651885 21.32421875 18.4296875 C20.62474121 17.8634668 19.92526367 17.29724609 19.20458984 16.71386719 C15.61179845 13.92080013 11.81506345 11.47809649 8 9 C8 15.27 8 21.54 8 28 C5.36 28 2.72 28 0 28 C0 18.76 0 9.52 0 0 Z " fill="#878787" transform="translate(444,172)"/>
<path d="M0 0 C0.79100098 -0.00628418 1.58200195 -0.01256836 2.39697266 -0.01904297 C8.17564274 0.10426406 13.06680221 1.40458681 18.4375 3.5 C18.4375 5.48 18.4375 7.46 18.4375 9.5 C17.30570312 9.17644531 16.17390625 8.85289062 15.0078125 8.51953125 C10.40563774 7.37354718 6.03827167 7.16757685 1.3125 7.1875 C0.54035156 7.17138672 -0.23179687 7.15527344 -1.02734375 7.13867188 C-5.9331667 7.13449315 -9.3332371 7.75547833 -13.5625 10.5 C-15.8033243 13.23740376 -15.8033243 13.23740376 -15.5 15.9375 C-14.26010721 19.32654029 -12.53020627 20.52152915 -9.5625 22.5 C-0.71070048 25.45059984 9.9314227 23.86240232 18.4375 20.5 C18.4375 22.81 18.4375 25.12 18.4375 27.5 C12.91775263 30.98225673 8.01413951 31.04145828 1.6875 31 C0.70338135 30.99500488 -0.2807373 30.99000977 -1.29467773 30.98486328 C-8.31186002 30.81563394 -13.9972512 30.11538139 -19.5625 25.5 C-20.12066406 25.04238281 -20.67882812 24.58476562 -21.25390625 24.11328125 C-23.85002769 21.53130761 -24.9158814 19.06499413 -25.1875 15.5 C-24.9161093 11.93799706 -23.84806593 9.4762543 -21.265625 6.88671875 C-14.53404835 1.40573318 -8.53730448 0.05139958 0 0 Z " fill="#858585" transform="translate(367.5625,170.5)"/>
<path d="M0 0 C11.55 0 23.1 0 35 0 C35.66 1.98 36.32 3.96 37 6 C32.71 6 28.42 6 24 6 C24 13.26 24 20.52 24 28 C21.36 28 18.72 28 16 28 C16 20.74 16 13.48 16 6 C10.72 6 5.44 6 0 6 C0 4.02 0 2.04 0 0 Z " fill="#888888" transform="translate(500,172)"/>
<path d="M0 0 C1.796875 0.1953125 1.796875 0.1953125 4 1 C5.703125 3.1796875 5.703125 3.1796875 7.25 5.875 C7.77078125 6.75929687 8.2915625 7.64359375 8.828125 8.5546875 C10 11 10 11 10 14 C4.39 14 -1.22 14 -7 14 C-5.58022512 9.74067537 -4.6974968 7.16986354 -2.375 3.625 C-1.70597656 2.59246094 -1.70597656 2.59246094 -1.0234375 1.5390625 C-0.68570313 1.03117188 -0.34796875 0.52328125 0 0 Z " fill="#0A0A0A" transform="translate(113,176)"/>
<path d="M0 0 C7.2 -0.36 7.2 -0.36 10.5 1.125 C12 3 12 3 12.375 6.0625 C12 9 12 9 10 11 C7.6171875 11.1953125 7.6171875 11.1953125 4.875 11.125 C2.461875 11.063125 2.461875 11.063125 0 11 C0 7.37 0 3.74 0 0 Z " fill="#6F6F6F" transform="translate(399,222)"/>
<path d="M0 0 C1.91015625 0.23046875 1.91015625 0.23046875 3.91015625 2.23046875 C4.10546875 4.39453125 4.10546875 4.39453125 4.03515625 6.85546875 C4.01710937 7.67273438 3.9990625 8.49 3.98046875 9.33203125 C3.94566406 10.27175781 3.94566406 10.27175781 3.91015625 11.23046875 C1.60015625 10.57046875 -0.70984375 9.91046875 -3.08984375 9.23046875 C-3.08984375 9.89046875 -3.08984375 10.55046875 -3.08984375 11.23046875 C-4.40984375 11.23046875 -5.72984375 11.23046875 -7.08984375 11.23046875 C-7.11672526 9.58472309 -7.13618498 7.93885462 -7.15234375 6.29296875 C-7.16394531 5.37644531 -7.17554688 4.45992187 -7.1875 3.515625 C-6.98929478 -1.12237713 -3.96757672 0.07920752 0 0 Z " fill="#606060" transform="translate(224.08984375,221.76953125)"/>
<path d="M0 0 C7.75 -0.125 7.75 -0.125 10 1 C10.4140625 3.28515625 10.4140625 3.28515625 10.625 6.0625 C10.69976562 6.98160156 10.77453125 7.90070313 10.8515625 8.84765625 C10.90054687 9.55792969 10.94953125 10.26820313 11 11 C9.35 10.67 7.7 10.34 6 10 C6 9.34 6 8.68 6 8 C5.01 8 4.02 8 3 8 C3 8.99 3 9.98 3 11 C2.01 11 1.02 11 0 11 C0 7.37 0 3.74 0 0 Z " fill="#656565" transform="translate(361,222)"/>
<path d="M0 0 C3.81433013 1.52573205 5.96552304 2.52746322 9 5 C9.33 3.35 9.66 1.7 10 0 C10.99 0 11.98 0 13 0 C13 3.63 13 7.26 13 11 C9.08788267 9.84414715 6.1254959 8.64465038 3 6 C3 7.65 3 9.3 3 11 C2.01 11 1.02 11 0 11 C0 7.37 0 3.74 0 0 Z " fill="#737373" transform="translate(285,222)"/>
<path d="M0 0 C1.37478516 0.01740234 1.37478516 0.01740234 2.77734375 0.03515625 C3.69644531 0.04417969 4.61554688 0.05320313 5.5625 0.0625 C6.27277344 0.07410156 6.98304688 0.08570313 7.71484375 0.09765625 C7.71484375 1.08765625 7.71484375 2.07765625 7.71484375 3.09765625 C5.40484375 3.09765625 3.09484375 3.09765625 0.71484375 3.09765625 C0.71484375 3.75765625 0.71484375 4.41765625 0.71484375 5.09765625 C2.69484375 5.09765625 4.67484375 5.09765625 6.71484375 5.09765625 C6.71484375 5.75765625 6.71484375 6.41765625 6.71484375 7.09765625 C4.73484375 7.09765625 2.75484375 7.09765625 0.71484375 7.09765625 C0.71484375 7.75765625 0.71484375 8.41765625 0.71484375 9.09765625 C3.02484375 9.09765625 5.33484375 9.09765625 7.71484375 9.09765625 C7.71484375 9.75765625 7.71484375 10.41765625 7.71484375 11.09765625 C4.08484375 11.09765625 0.45484375 11.09765625 -3.28515625 11.09765625 C-3.3828125 3.3828125 -3.3828125 3.3828125 -3.28515625 1.09765625 C-2.28515625 0.09765625 -2.28515625 0.09765625 0 0 Z " fill="#6F6F6F" transform="translate(383.28515625,221.90234375)"/>
<path d="M0 0 C1.32 0.33 2.64 0.66 4 1 C4 3.31 4 5.62 4 8 C4.99 7.67 5.98 7.34 7 7 C8.22969878 3.48809191 8.22969878 3.48809191 9 0 C9.99 0 10.98 0 12 0 C12.05399736 1.45792884 12.09279177 2.91642712 12.125 4.375 C12.14820313 5.18710938 12.17140625 5.99921875 12.1953125 6.8359375 C12 9 12 9 10 11 C8.125 11.265625 8.125 11.265625 6 11.25 C5.29875 11.25515625 4.5975 11.2603125 3.875 11.265625 C2 11 2 11 0 9 C-0.1953125 6.8359375 -0.1953125 6.8359375 -0.125 4.375 C-0.10695312 3.55773437 -0.08890625 2.74046875 -0.0703125 1.8984375 C-0.04710937 1.27195313 -0.02390625 0.64546875 0 0 Z " fill="#6F6F6F" transform="translate(197,222)"/>
<path d="M0 0 C1.32 0.33 2.64 0.66 4 1 C4 3.31 4 5.62 4 8 C4.99 7.67 5.98 7.34 7 7 C8.22969878 3.48809191 8.22969878 3.48809191 9 0 C9.99 0 10.98 0 12 0 C12.05399736 1.45792884 12.09279177 2.91642712 12.125 4.375 C12.14820313 5.18710938 12.17140625 5.99921875 12.1953125 6.8359375 C12 9 12 9 10 11 C8.125 11.265625 8.125 11.265625 6 11.25 C5.29875 11.25515625 4.5975 11.2603125 3.875 11.265625 C2 11 2 11 0 9 C-0.1953125 6.8359375 -0.1953125 6.8359375 -0.125 4.375 C-0.10695312 3.55773437 -0.08890625 2.74046875 -0.0703125 1.8984375 C-0.04710937 1.27195313 -0.02390625 0.64546875 0 0 Z " fill="#6F6F6F" transform="translate(158,222)"/>
<path d="M0 0 C3.625 -0.1875 3.625 -0.1875 7 0 C7.87867729 3.73437848 8.08912219 7.16774573 8 11 C5.03 11 2.06 11 -1 11 C-1 10.01 -1 9.02 -1 8 C1.31 8.33 3.62 8.66 6 9 C6 8.34 6 7.68 6 7 C4.02 7 2.04 7 0 7 C-0.66 5.68 -1.32 4.36 -2 3 C-1.34 2.01 -0.68 1.02 0 0 Z " fill="#818181" transform="translate(308,222)"/>
<path d="M0 0 C1.98 0.66 3.96 1.32 6 2 C6.66 1.34 7.32 0.68 8 0 C8.99 0 9.98 0 11 0 C10.70703125 1.98567708 10.4140625 3.97135417 10.12109375 5.95703125 C9.86095201 8.2025342 9.86095201 8.2025342 11 11 C8.69 10.34 6.38 9.68 4 9 C4 9.66 4 10.32 4 11 C2.68 10.67 1.36 10.34 0 10 C0.185625 9.278125 0.37125 8.55625 0.5625 7.8125 C1.01995307 4.87173027 0.73516357 2.85896942 0 0 Z " fill="#7A7A7A" transform="translate(178,222)"/>
<path d="M0 0 C6.93359375 -0.09765625 6.93359375 -0.09765625 9 0 C10 1 10 1 10.0625 4.0625 C10.041875 5.031875 10.02125 6.00125 10 7 C7.69 7.33 5.38 7.66 3 8 C3 8.99 3 9.98 3 11 C2.01 11 1.02 11 0 11 C0 7.37 0 3.74 0 0 Z " fill="#525252" transform="translate(325,222)"/>
<path d="M0 0 C4.455 0.99 4.455 0.99 9 2 C9 1.34 9 0.68 9 0 C9.99 0 10.98 0 12 0 C10.95902388 3.86648272 9.96301592 7.49461443 8 11 C7.01 11 6.02 11 5 11 C4.16151196 9.54462432 3.32936066 8.08559627 2.5 6.625 C1.80390625 5.40683594 1.80390625 5.40683594 1.09375 4.1640625 C0 2 0 2 0 0 Z " fill="#797979" transform="translate(236,222)"/>
<path d="M0 0 C2.64 0 5.28 0 8 0 C8 0.99 8 1.98 8 3 C7.34 3 6.68 3 6 3 C6 4.98 6 6.96 6 9 C6.99 9 7.98 9 9 9 C9 9.66 9 10.32 9 11 C6.03 11 3.06 11 0 11 C0 10.34 0 9.68 0 9 C0.66 9 1.32 9 2 9 C2 7.02 2 5.04 2 3 C1.34 3 0.68 3 0 3 C0 2.01 0 1.02 0 0 Z " fill="#636363" transform="translate(268,222)"/>
<path d="M0 0 C2.64 0 5.28 0 8 0 C8 0.99 8 1.98 8 3 C7.34 3 6.68 3 6 3 C6 4.98 6 6.96 6 9 C6.66 9 7.32 9 8 9 C8 9.66 8 10.32 8 11 C5.36 11 2.72 11 0 11 C0 10.34 0 9.68 0 9 C0.66 9 1.32 9 2 9 C2 7.02 2 5.04 2 3 C1.34 3 0.68 3 0 3 C0 2.01 0 1.02 0 0 Z " fill="#626262" transform="translate(344,222)"/>
<path d="M0 0 C0.33 0 0.66 0 1 0 C1.33 3.3 1.66 6.6 2 10 C0.35 9.67 -1.3 9.34 -3 9 C-3 8.34 -3 7.68 -3 7 C-3.99 6.67 -4.98 6.34 -6 6 C-6 4.68 -6 3.36 -6 2 C-4.02 2 -2.04 2 0 2 C0 1.34 0 0.68 0 0 Z " fill="#636363" transform="translate(370,223)"/>
<path d="M0 0 C0.66 0 1.32 0 2 0 C2 2.97 2 5.94 2 9 C4.31 9 6.62 9 9 9 C9 9.66 9 10.32 9 11 C5.7 11 2.4 11 -1 11 C-1.09765625 3.28515625 -1.09765625 3.28515625 -1 1 C-0.67 0.67 -0.34 0.34 0 0 Z " fill="#767676" transform="translate(141,222)"/>
<path d="M0 0 C3.625 -0.1875 3.625 -0.1875 7 0 C7.33 1.32 7.66 2.64 8 4 C2.25 5.125 2.25 5.125 0 4 C-0.33 4.66 -0.66 5.32 -1 6 C-1.33 5.01 -1.66 4.02 -2 3 C-1.34 2.01 -0.68 1.02 0 0 Z " fill="#767676" transform="translate(308,222)"/>
<path d="M0 0 C0.33 0.66 0.66 1.32 1 2 C3.31 2 5.62 2 8 2 C8 2.66 8 3.32 8 4 C6.02 4 4.04 4 2 4 C2 4.66 2 5.32 2 6 C4.31 6 6.62 6 9 6 C9 6.66 9 7.32 9 8 C6.03 8 3.06 8 0 8 C0 5.36 0 2.72 0 0 Z " fill="#898989" transform="translate(382,225)"/>
<path d="M0 0 C1.98 0 3.96 0 6 0 C5.01 0.495 5.01 0.495 4 1 C4.309375 2.11375 4.309375 2.11375 4.625 3.25 C5.04408751 6.32330841 4.61949011 7.42786866 3 10 C2.01 10 1.02 10 0 10 C0 6.7 0 3.4 0 0 Z " fill="#7B7B7B" transform="translate(217,223)"/>
<path d="M0 0 C0.99 0 1.98 0 3 0 C3 2.97 3 5.94 3 9 C1.02 9.99 1.02 9.99 -1 11 C-2.60080151 6.99799622 -1.29279692 3.95443764 0 0 Z " fill="#7D7D7D" transform="translate(206,222)"/>
<path d="M0 0 C0.99 0 1.98 0 3 0 C3 2.97 3 5.94 3 9 C1.02 9.99 1.02 9.99 -1 11 C-2.60080151 6.99799622 -1.29279692 3.95443764 0 0 Z " fill="#7D7D7D" transform="translate(167,222)"/>
<path d="M0 0 C0.99 0.495 0.99 0.495 2 1 C2 1.99 2 2.98 2 4 C3.98 4 5.96 4 8 4 C8.33 3.01 8.66 2.02 9 1 C9 2.65 9 4.3 9 6 C6.69 6.33 4.38 6.66 2 7 C2 7.99 2 8.98 2 10 C1.34 10 0.68 10 0 10 C0 6.7 0 3.4 0 0 Z " fill="#808080" transform="translate(326,223)"/>
<path d="M0 0 C1.98 0 3.96 0 6 0 C6 1.98 6 3.96 6 6 C4.02 6 2.04 6 0 6 C0 4.02 0 2.04 0 0 Z " fill="#090909" transform="translate(402,225)"/>
<path d="M0 0 C0.33 0 0.66 0 1 0 C1 1.98 1 3.96 1 6 C6.01535052 5.67039784 6.01535052 5.67039784 10 3 C9.67 4.65 9.34 6.3 9 8 C6.03 8 3.06 8 0 8 C0 5.36 0 2.72 0 0 Z " fill="#8A8A8A" transform="translate(400,225)"/>
<path d="M0 0 C0.33 0 0.66 0 1 0 C1 1.98 1 3.96 1 6 C2.32 6 3.64 6 5 6 C5 6.66 5 7.32 5 8 C2.03 8 -0.94 8 -4 8 C-4 7.34 -4 6.68 -4 6 C-3.01 6 -2.02 6 -1 6 C-1.020625 5.195625 -1.04125 4.39125 -1.0625 3.5625 C-1 1 -1 1 0 0 Z " fill="#858585" transform="translate(272,225)"/>
<path d="M0 0 C1.98 0 3.96 0 6 0 C5.67 1.65 5.34 3.3 5 5 C3.35 5 1.7 5 0 5 C0 3.35 0 1.7 0 0 Z " fill="#747474" transform="translate(283,195)"/>
<path d="M0 0 C1.65 0 3.3 0 5 0 C5 1.32 5 2.64 5 4 C3.02 4.33 1.04 4.66 -1 5 C-0.67 3.35 -0.34 1.7 0 0 Z " fill="#787878" transform="translate(257,195)"/>
<path d="M0 0 C0.66 0 1.32 0 2 0 C2 1.65 2 3.3 2 5 C2.99 5 3.98 5 5 5 C5 5.66 5 6.32 5 7 C2.36 7 -0.28 7 -3 7 C-3 6.34 -3 5.68 -3 5 C-2.01 5 -1.02 5 0 5 C0 3.35 0 1.7 0 0 Z " fill="#8A8A8A" transform="translate(347,226)"/>
<path d="M0 0 C1.98 0 3.96 0 6 0 C6 1.32 6 2.64 6 4 C4.35 4.33 2.7 4.66 1 5 C0.67 3.35 0.34 1.7 0 0 Z " fill="#7A7A7A" transform="translate(256,181)"/>
<path d="M0 0 C1.32 0 2.64 0 4 0 C4 1.65 4 3.3 4 5 C2.35 5 0.7 5 -1 5 C-0.67 3.35 -0.34 1.7 0 0 Z " fill="#7A7A7A" transform="translate(284,181)"/>
<path d="M0 0 C2.31 0 4.62 0 7 0 C7.33 0.99 7.66 1.98 8 3 C5.36 3 2.72 3 0 3 C0 2.01 0 1.02 0 0 Z " fill="#888888" transform="translate(362,222)"/>
<path d="M0 0 C1.65 0.33 3.3 0.66 5 1 C4.67 2.32 4.34 3.64 4 5 C2.35 4.67 0.7 4.34 -1 4 C-0.67 2.68 -0.34 1.36 0 0 Z " fill="#7A7A7A" transform="translate(270,181)"/>
<path d="M0 0 C0.33 0.66 0.66 1.32 1 2 C3.31 2 5.62 2 8 2 C8 2.66 8 3.32 8 4 C6.02 4 4.04 4 2 4 C1.67 4.66 1.34 5.32 1 6 C0.67 4.02 0.34 2.04 0 0 Z " fill="#818181" transform="translate(382,225)"/>
<path d="M0 0 C2.475 0.495 2.475 0.495 5 1 C4.67 2.32 4.34 3.64 4 5 C2.68 4.67 1.36 4.34 0 4 C0 2.68 0 1.36 0 0 Z " fill="#7F7F7F" transform="translate(270,195)"/>
</svg>
